<svg width="23" height="19" viewBox="0 0 23 19" fill="none" xmlns="http://www.w3.org/2000/svg">
<path d="M20.1155 4.99561C20.9749 4.35107 21.7484 3.57764 22.3499 2.67529C21.5765 3.01904 20.6741 3.27686 19.7718 3.36279C20.7171 2.8042 21.4046 1.94482 21.7484 0.870605C20.889 1.38623 19.9007 1.77295 18.9124 1.98779C18.053 1.08545 16.8929 0.569824 15.6038 0.569824C13.1116 0.569824 11.0921 2.58936 11.0921 5.08154C11.0921 5.42529 11.1351 5.76904 11.221 6.11279C7.48273 5.89795 4.13116 4.09326 1.89679 1.38623C1.51007 2.03076 1.29523 2.8042 1.29523 3.66357C1.29523 5.21045 2.06866 6.58545 3.31476 7.40186C2.58429 7.35889 1.85382 7.18701 1.25226 6.84326V6.88623C1.25226 9.07764 2.79913 10.8823 4.86163 11.312C4.51788 11.3979 4.0882 11.4839 3.70148 11.4839C3.4007 11.4839 3.14288 11.4409 2.8421 11.3979C3.4007 13.2026 5.07648 14.4917 7.05304 14.5347C5.50616 15.7378 3.57257 16.4683 1.4671 16.4683C1.08038 16.4683 0.736633 16.4253 0.392883 16.3823C2.36945 17.6714 4.73273 18.4019 7.31085 18.4019C15.6038 18.4019 20.1155 11.5698 20.1155 5.59717C20.1155 5.38232 20.1155 5.21045 20.1155 4.99561Z" fill="#56D7AF"/>
</svg>
