<svg width="20" height="21" viewBox="0 0 20 21" fill="none" xmlns="http://www.w3.org/2000/svg">
<path d="M10.3036 5.52307C7.55365 5.52307 5.36224 7.75745 5.36224 10.4645C5.36224 13.2145 7.55365 15.4059 10.3036 15.4059C13.0107 15.4059 15.2451 13.2145 15.2451 10.4645C15.2451 7.75745 13.0107 5.52307 10.3036 5.52307ZM10.3036 13.6871C8.54193 13.6871 7.08099 12.2692 7.08099 10.4645C7.08099 8.70276 8.49896 7.28479 10.3036 7.28479C12.0654 7.28479 13.4833 8.70276 13.4833 10.4645C13.4833 12.2692 12.0654 13.6871 10.3036 13.6871ZM16.5771 5.3512C16.5771 4.70667 16.0615 4.19104 15.4169 4.19104C14.7724 4.19104 14.2568 4.70667 14.2568 5.3512C14.2568 5.99573 14.7724 6.51135 15.4169 6.51135C16.0615 6.51135 16.5771 5.99573 16.5771 5.3512ZM19.8427 6.51135C19.7568 4.96448 19.413 3.58948 18.2958 2.47229C17.1786 1.3551 15.8036 1.01135 14.2568 0.925415C12.6669 0.839478 7.8974 0.839478 6.30756 0.925415C4.76068 1.01135 3.42865 1.3551 2.26849 2.47229C1.15131 3.58948 0.807556 4.96448 0.721619 6.51135C0.635681 8.1012 0.635681 12.8707 0.721619 14.4606C0.807556 16.0074 1.15131 17.3395 2.26849 18.4996C3.42865 19.6168 4.76068 19.9606 6.30756 20.0465C7.8974 20.1324 12.6669 20.1324 14.2568 20.0465C15.8036 19.9606 17.1786 19.6168 18.2958 18.4996C19.413 17.3395 19.7568 16.0074 19.8427 14.4606C19.9286 12.8707 19.9286 8.1012 19.8427 6.51135ZM17.7802 16.1364C17.4794 16.9957 16.7919 17.6403 15.9755 17.984C14.6865 18.4996 11.6786 18.3707 10.3036 18.3707C8.88568 18.3707 5.87787 18.4996 4.63177 17.984C3.7724 17.6403 3.12787 16.9957 2.78412 16.1364C2.26849 14.8903 2.3974 11.8824 2.3974 10.4645C2.3974 9.08948 2.26849 6.08167 2.78412 4.7926C3.12787 3.9762 3.7724 3.33167 4.63177 2.98792C5.87787 2.47229 8.88568 2.6012 10.3036 2.6012C11.6786 2.6012 14.6865 2.47229 15.9755 2.98792C16.7919 3.2887 17.4365 3.9762 17.7802 4.7926C18.2958 6.08167 18.1669 9.08948 18.1669 10.4645C18.1669 11.8824 18.2958 14.8903 17.7802 16.1364Z" fill="#56D7AF"/>
</svg>
