<?xml version="1.0" encoding="utf-8"?>
<!-- Generator: Adobe Illustrator 24.0.1, SVG Export Plug-In . SVG Version: 6.00 Build 0)  -->
<svg version="1.1" id="Layer_1" xmlns="http://www.w3.org/2000/svg" xmlns:xlink="http://www.w3.org/1999/xlink" x="0px" y="0px"
	 viewBox="0 0 223.9 49.7" style="enable-background:new 0 0 223.9 49.7;" xml:space="preserve">
<style type="text/css">
	.st0{fill:#FF0071;}
</style>
<path class="st0" d="M195.2,43.8c1.3-1.7,2.6-3.4,3.6-4.6c0.3-0.3,6.5,2,7.2,2.2c2.4,0.7,4.1,1.3,6.6,0.4c0.8-0.3,1.5-0.7,1.8-1.5
	c0.1-0.3,0.1-0.6,0-0.9c-0.2-2.8-3.6-3.3-5.8-4.2c-2.2-0.9-4.5-1.7-6.6-2.9c-5.6-3.2-6.4-10.1-1.7-14.5c4.5-4.2,10-4.6,15.7-3.1
	c2.4,0.6,4.7,1.9,7.4,3c-1.3,2.4-2.4,4.3-3.4,6.2c-2.3-0.9-4.3-1.8-6.4-2.4c-1.5-0.4-4.9-1-6.2,0c-0.6,0.4-0.9,1.1-1.1,1.7
	c-0.2,0.6-0.2,1.2,0,1.8c0.8,1.6,4.5,2.2,6.1,2.8c2,0.7,4.1,1.3,6.1,2.2c6.4,3.1,7.6,11.4,2.1,16c-3.7,3.1-8.5,4.3-13.1,3.3
	c-1.3-0.3-12.1-3.6-12.1-4.6C195.2,44.4,195.2,44.1,195.2,43.8z"/>
<path class="st0" d="M44.6,49.3c-2.5-0.2-4.9-1.2-7-3.1c-3-2.7-4.1-6.7-3.4-10.6c0.7-4.1,4.6-7.3,9.9-7.7c3.7-0.3,7.4-0.4,11.2-0.5
	c0.7-3-0.7-5.1-3.8-5.7c-3.4-0.6-6.6,0.5-9.6,1.9c-0.7,0.3-1.3,0.7-2.2,1.2c-1.3-1.9-2.7-3.8-4.2-5.8c5.2-3.8,11-5.4,17.2-4.9
	C61.2,14.8,65,19,65,27.7c0,7,0,14,0,21.1c-2.9,0-5.6,0-8.6,0c-0.1-0.9-0.1-2-0.4-2.8c-1.2,0.7-2.2,1.7-3.5,2.3
	c-0.8,0.3-1.7,0.5-2.5,0.7C48.1,49.3,46.3,49.4,44.6,49.3z M55.2,34c-3,0.2-6.2,0.2-9.2,0.8c-1,0.2-2.2,1.7-2.4,2.7
	c-0.2,1,0.5,2.5,1.2,3.2c1.7,1.7,5.5,1.6,8,0.1C55.1,39.3,55.9,37.5,55.2,34z"/>
<path class="st0" d="M0,43.7c1.3-1.7,2.6-3.4,3.6-4.6c0.3-0.3,6.5,2,7.2,2.2c2.4,0.7,4.1,1.3,6.6,0.4c0.8-0.3,1.5-0.7,1.8-1.5
	c0.1-0.3,0.1-0.6,0-0.9c-0.2-2.8-3.6-3.3-5.8-4.2c-2.2-0.9-4.5-1.7-6.6-2.9C1.1,29.1,0.3,22.2,5,17.8c4.5-4.2,10-4.6,15.7-3.1
	c2.4,0.6,4.7,1.9,7.4,3c-1.3,2.4-2.4,4.3-3.4,6.2c-2.3-0.9-4.3-1.8-6.4-2.4c-1.5-0.4-4.9-1-6.2,0c-0.6,0.4-0.9,1.1-1.1,1.7
	c-0.2,0.6-0.2,1.2,0,1.8c0.8,1.6,4.5,2.2,6.1,2.8c2,0.7,4.1,1.3,6.1,2.2c6.4,3.1,7.6,11.4,2.1,16c-3.7,3.1-8.5,4.3-13.1,3.3
	C10.8,49.1,0,45.8,0,44.7C0,44.4,0,44.1,0,43.7z"/>
<path class="st0" d="M124.5,49.5c-5.1-1-9.3-4.7-9.6-10.2c-0.2-4.8-0.2-18.2-0.2-18.2s-4.1,0-4.6,0c0-2.1,0-4.1,0-6.3
	c1.4-0.1,2.8-0.2,4.6-0.4c0-3.1,0.2-7.8,0.2-7.8s7-1.5,9.2-2.3c0,3.6,0,6.7,0,10.3c2.6,0,4.8,0,7.1,0c0,2.3,0,4.3,0,6.7
	c-1.7,0-7.1,0-7.1,0s0,10.8,0,15.1c0,1.9,0.2,3.7,2.2,4.7c1.9,0.9,3.5,0.1,5.1-1c0.3-0.2,0.5-0.4,1-0.7c1.1,2.1,2.2,4.1,3.6,6.6
	c-2.8,1.4-6,3.9-9.2,3.8C126.1,49.7,125.3,49.6,124.5,49.5z"/>
<path class="st0" d="M82,49c-3.3,0-6.1,0-9.1,0c0-11.4,0-22.8,0-34.3c2.9,0,5.9,0,8.9,0c0.1,1.1,0.2,2,0.4,3.4
	c0.8-0.5,1.4-0.9,1.9-1.3c8.3-6.1,19.3-1.9,20.3,8.3c0.8,7.8,0.2,15.8,0.2,23.8c-2.8,0-5.7,0-8.9,0c-0.1-0.8-0.2-1.7-0.2-2.6
	c0-5.3,0-10.7,0-16c0-1.1-0.1-2.2-0.3-3.2c-0.6-3.7-2.4-5.6-5.5-5.8c-3.1-0.2-6.4,1.9-7.2,5c-0.4,1.3-0.5,2.8-0.5,4.2
	C81.9,36.6,82,42.7,82,49z"/>
<path class="st0" d="M158.3,14.7c3,0,5.9,0,8.9,0c0.1,1.1,0.1,1.9,0.2,2.9c2.3-1.2,4.6-2.5,6.9-3.1c8.4-2.2,15.6,3.5,16,12.7
	c0.3,7.2,0.1,14.3,0.1,21.7c-3,0-6,0-9.2,0c-0.1-0.8-0.2-1.7-0.2-2.6c0-5.2,0-10.5,0-15.7c0-1.1-0.1-2.2-0.2-3.2
	c-0.5-3.7-2.2-5.6-5.3-5.9c-3-0.3-6.3,1.7-7.3,4.6c-0.5,1.4-0.7,2.9-0.7,4.4c-0.1,6.1,0,12.2,0,18.5c-3.1,0-6,0-9.1,0
	C158.3,37.6,158.3,26.3,158.3,14.7z"/>
<path class="st0" d="M141.3,14.7c3,0,6,0,9.1,0c0,11.5,0,22.7,0,34.2c-3,0-5.9,0-9.1,0C141.3,37.5,141.3,26.2,141.3,14.7z"/>
<circle class="st0" cx="145.8" cy="5.4" r="5.4"/>
</svg>
